<svg width="84" height="32" viewBox="0 0 84 32" fill="none" xmlns="http://www.w3.org/2000/svg">
<path d="M41.3493 11.2294C41.9513 11.243 42.2322 11.7194 42.2322 12.6722C42.2322 13.6522 41.9111 14.1694 41.3493 14.1694V11.2294ZM41.3493 7.69057C42.0449 7.69057 42.1519 8.3439 42.1519 9.02445C42.1519 9.90916 41.8443 10.3447 41.3493 10.3447V7.69057ZM45.4963 13.1077C45.4963 11.5016 44.2255 10.9708 43.075 10.7258C43.9579 10.5353 45.2555 9.86833 45.2555 8.16695C45.2555 6.79224 43.8108 6.19336 42.4596 6.19336H38.1253C37.5634 6.19336 37.2825 6.54725 37.2825 6.80585C37.4564 7.20057 37.5367 8.07168 37.5367 8.94278V12.9308C37.5367 13.8155 37.4163 15.0269 37.4163 15.2447C37.4163 15.408 37.4832 15.5305 37.6169 15.5305H42.366C43.891 15.5305 45.4963 14.7547 45.4963 13.1077Z" fill="white"/>
<path d="M51.0788 14.9588C51.3731 15.4216 51.9349 15.8027 52.6172 15.8027C53.6071 15.8027 54.5569 15.3127 54.5569 14.6322C54.5569 14.5641 54.5435 14.4961 54.5168 14.4416C54.383 14.2919 54.2225 13.9652 54.2225 13.5161V8.72501C54.2225 7.94918 52.7509 7.63613 51.547 7.63613C50.8246 7.63613 50.1958 8.07168 50.1958 8.56167C50.1958 8.68417 50.2627 8.77945 50.3162 8.83389C50.4901 8.91556 50.7042 9.13334 50.7042 9.67778V13.693C50.6105 13.7883 50.4901 13.8564 50.343 13.8564C49.9818 13.8564 49.7544 13.5025 49.7544 12.9036V8.68417C49.3129 7.96279 48.5638 7.64974 47.5203 7.64974C46.6106 7.64974 45.7679 8.13973 45.7679 8.80667C45.7679 8.95639 45.8347 9.07889 45.8883 9.11972C46.0622 9.215 46.2361 9.62333 46.2361 10.0453V13.5841C46.2361 15.0405 47.5604 15.8027 48.8313 15.8027C49.9283 15.8027 50.5704 15.4488 51.0788 14.9588Z" fill="white"/>
<path d="M55.5962 13.5161C55.5962 14.1558 55.4758 14.9725 55.4758 15.2038C55.4758 15.3672 55.5427 15.4624 55.6096 15.5033C55.7969 15.5986 56.5059 15.6666 57.3219 15.6666C58.0443 15.6666 58.8068 15.653 59.0744 15.5849C59.168 15.5577 59.2884 15.3944 59.2884 15.2447C59.2884 15.0133 59.1145 14.3191 59.1145 13.8291V10.8755C59.1145 10.3992 59.4623 9.96361 59.8636 9.96361C60.2382 9.96361 60.5726 10.1542 60.6797 10.3855C61.0944 10.2358 61.5224 9.66416 61.5224 8.82028C61.5224 8.08529 61.0409 7.63613 60.1981 7.63613C59.382 7.63613 58.5928 8.2214 58.3118 8.95639C58.0041 8.2214 57.4958 7.89473 56.7467 7.89473C55.7969 7.89473 54.847 8.39834 54.847 9.20139C54.847 9.24222 54.8604 9.28306 54.8738 9.31028C55.1815 9.44639 55.5962 9.92277 55.5962 10.6169V13.5161Z" fill="white"/>
<path d="M63.535 16.5241C63.535 16.4697 63.535 16.4288 63.5484 16.388H65.7022C66.0366 16.388 66.331 16.4697 66.5718 16.8235C66.0902 16.9869 65.3678 17.1094 64.5785 17.1094C63.9364 17.1094 63.535 16.8916 63.535 16.5241ZM65.3276 12.3047C64.9798 12.3047 64.5785 11.8011 64.5785 10.7394C64.5785 9.55528 64.8327 9.05167 65.1403 9.05167C65.5015 9.05167 65.836 9.65055 65.836 10.7258C65.836 11.9236 65.5015 12.3047 65.3276 12.3047ZM68.7523 10.2903C68.7523 9.73222 68.565 9.25583 68.2573 8.86112C68.7122 8.65695 69.2606 8.16695 69.2606 7.59529C69.2606 6.91474 68.8326 6.34308 68.0834 6.34308C67.856 6.34308 67.5884 6.39752 67.2941 6.52002C67.3744 6.72419 67.4547 7.06446 67.4547 7.41835C67.4547 7.67696 67.4279 7.92196 67.3744 8.13973C66.7457 7.79946 65.9831 7.63613 65.234 7.63613C63.0401 7.63613 61.6354 9.35111 61.6354 10.9572C61.6354 12.0597 62.1572 12.7947 62.9063 13.2575C62.6789 13.5161 62.505 13.625 62.2775 13.7475C61.9966 13.8972 61.2742 14.1422 61.2341 14.9997C61.2475 15.6258 61.7157 15.9797 62.2775 16.1702C61.7023 16.4152 61.2341 16.9188 61.2341 17.4633C61.2341 18.2391 62.6521 18.5249 64.6588 18.5249C67.4012 18.5249 69.1001 17.9124 69.1001 16.0749C69.1001 14.7411 67.6018 14.1966 66.4781 14.1966C65.6888 14.1966 64.8594 14.5641 64.2708 14.8363C64.2708 14.2375 64.525 13.9789 65.02 13.8291H65.1136C67.1604 13.8291 68.7523 12.4272 68.7523 10.2903Z" fill="white"/>
<path d="M73.3272 7.63613C70.8524 7.63613 69.2203 9.40556 69.2203 11.8964C69.2203 14.4961 70.839 15.8027 73.1533 15.8027C74.8656 15.8027 75.9492 15.2583 76.4843 14.3463C76.2435 13.6386 75.5078 13.0397 74.7586 13.0397C74.4911 13.0397 74.17 13.1077 73.9693 13.2847C74.0228 13.4889 74.063 13.693 74.063 13.9244C74.063 14.2919 73.956 14.5913 73.6616 14.5913C73.2336 14.5913 72.8322 13.5841 72.7787 12.0869C73.2068 12.1686 74.1566 12.2639 74.9593 12.2639C75.9893 12.2639 76.8188 12.0053 76.8188 11.5833C76.8188 8.60251 75.4141 7.63613 73.3272 7.63613ZM73.2737 8.91556C73.5948 8.91556 73.8356 9.71861 73.8356 11.0933C73.568 11.2022 73.1934 11.2703 72.7386 11.2703C72.7386 9.93638 72.9259 8.91556 73.2737 8.91556Z" fill="white"/>
<path d="M77.6875 13.5161C77.6875 14.1558 77.5671 14.9725 77.5671 15.2038C77.5671 15.3672 77.634 15.4624 77.7008 15.5033C77.8881 15.5986 78.5971 15.6666 79.4132 15.6666C80.1356 15.6666 80.8981 15.653 81.1656 15.5849C81.2593 15.5577 81.3797 15.3944 81.3797 15.2447C81.3797 15.0133 81.2058 14.3191 81.2058 13.8291V10.8755C81.2058 10.3992 81.5536 9.96361 81.9549 9.96361C82.3295 9.96361 82.6639 10.1542 82.7709 10.3855C83.1856 10.2358 83.6137 9.66416 83.6137 8.82028C83.6137 8.08529 83.1321 7.63613 82.2893 7.63613C81.4733 7.63613 80.684 8.2214 80.4031 8.95639C80.0954 8.2214 79.5871 7.89473 78.8379 7.89473C77.8881 7.89473 76.9383 8.39834 76.9383 9.20139C76.9383 9.24222 76.9517 9.28306 76.9651 9.31028C77.2728 9.44639 77.6875 9.92277 77.6875 10.6169V13.5161Z" fill="white"/>
<path d="M40.5734 21.6282C40.5734 21.288 40.7874 21.0157 41.1486 21.0157C41.4831 21.0157 41.8041 21.3288 41.8041 21.7916C41.8041 21.9957 41.7907 22.2135 41.7372 22.3496C41.8309 22.5266 42.2322 22.7988 42.7138 22.7988C43.4629 22.7988 44.1051 22.2679 44.1051 21.4377C44.1051 20.4305 42.8342 19.6546 41.055 19.6546C39.1152 19.6546 37.229 20.6618 37.229 22.3632C37.229 24.2415 39.0216 25.4529 40.2925 26.1199C40.7339 26.3512 41.0416 26.7596 41.0416 27.2496C41.0416 27.7804 40.7072 28.0662 40.3861 28.0662C40.0784 28.0662 39.7841 27.7532 39.7841 27.4265C39.7841 27.1543 39.851 26.8549 39.9179 26.6779C39.744 26.4329 39.2223 26.2015 38.7808 26.2015C37.9246 26.2015 37.1621 26.7051 37.1621 27.6171C37.1621 28.7876 38.7808 29.4273 40.6001 29.4273C42.9546 29.4273 44.6535 28.5018 44.6535 26.5962C44.6535 24.8268 42.6335 23.6971 41.1352 22.6899C40.8142 22.4721 40.5734 22.0638 40.5734 21.6282Z" fill="white"/>
<path d="M45.3356 27.9301C45.3356 28.2568 45.1751 28.6515 45.1751 28.8829C45.1751 29.0462 45.3088 29.1007 45.4025 29.1279C45.6165 29.1959 46.2988 29.2776 47.0479 29.2776C47.7703 29.2776 48.3723 29.2368 48.7736 29.1143C48.8673 29.0871 48.9342 29.0326 48.9342 28.9101C48.9342 28.7468 48.8539 28.3657 48.8539 27.8621V23.3296C48.9609 23.2888 49.0679 23.2479 49.2285 23.2479C49.5897 23.2479 49.8171 23.6835 49.8171 24.2688V27.3857C49.8171 28.2568 49.7368 28.7468 49.7368 28.9782C49.7368 29.0598 49.8305 29.1143 49.9107 29.1415C50.1515 29.2096 50.807 29.2776 51.5562 29.2776C52.3187 29.2776 53.0143 29.2232 53.3354 29.1279C53.4424 29.1007 53.5227 29.0326 53.5227 28.9237C53.5227 28.3793 53.322 27.971 53.322 26.8685V23.2207C53.322 22.0502 52.0779 21.2199 51.0612 21.2199C50.1515 21.2199 49.2686 21.6418 48.8539 22.023C48.8539 21.1246 48.9475 20.4032 49.1883 19.9677C48.7067 19.573 47.6633 19.1919 46.8339 19.1919C45.6433 19.1919 44.7604 19.641 44.7604 20.308C45.0948 20.7299 45.3356 21.1518 45.3356 21.8596V27.9301Z" fill="white"/>
<path d="M58.4417 27.8757C58.027 27.8757 57.5321 27.0182 57.5321 24.8813C57.5321 23.6971 57.7862 22.8124 58.0939 22.8124C58.5354 22.8124 59.0036 23.4385 59.0036 25.8476C59.0036 26.8276 58.7628 27.8757 58.4417 27.8757ZM62.5219 25.1399C62.5219 22.6082 60.9032 21.2471 58.3481 21.2471C56.3682 21.2471 54.0138 22.826 54.0138 25.3713C54.0138 28.0526 56.0472 29.4137 58.1876 29.4137C60.3146 29.4137 62.5219 27.9301 62.5219 25.1399Z" fill="white"/>
<path d="M66.9781 23.7243C66.9781 23.4385 67.2456 23.1935 67.4864 23.1935C68.0082 23.1935 68.2088 24.0374 68.2088 25.5618C68.2088 27.2632 67.9413 27.8757 67.6336 27.8757C67.3393 27.8757 66.9781 27.5218 66.9781 26.8412V23.7243ZM63.1387 22.9485C63.2324 23.0846 63.4598 23.8468 63.4598 24.3232V30.4073C63.4598 30.8973 63.326 31.3737 63.326 31.6459C63.326 31.7548 63.4197 31.8365 63.5133 31.8637C63.7273 31.9318 64.3695 31.9998 65.2524 31.9998C66.1085 31.9998 66.657 31.9318 66.8844 31.8637C67.0048 31.8229 67.0717 31.714 67.0717 31.6187C67.0717 31.4826 66.9781 30.8973 66.9781 30.4345V29.3184C67.1921 29.3729 67.5132 29.4137 67.8209 29.4137C69.7874 29.4137 71.7271 28.2976 71.7271 25.1126C71.7271 22.2543 70.162 21.2471 68.463 21.2471C67.5801 21.2471 66.7908 21.6555 66.443 22.2135C66.1353 21.7916 65.6403 21.5193 64.8109 21.5193C64.1153 21.5193 63.0317 22.1863 63.0317 22.7035C63.0317 22.7852 63.0852 22.8668 63.1387 22.9485Z" fill="white"/>
<path d="M9.21162 29.0827H22.7871C25.7618 29.0827 28.26 27.0106 28.9186 24.2344H3.08008C3.73871 27.0106 6.23695 29.0827 9.21162 29.0827Z" fill="#F58220"/>
<path d="M31.9248 13.1101C31.6709 12.3479 30.8472 11.9362 30.0851 12.1902C29.7441 12.3039 29.4385 12.4057 29.0686 12.4794C28.8794 9.91357 27.4909 7.54618 25.1095 5.75984C22.6653 3.92663 19.4343 2.91699 16.0117 2.91699C12.5882 2.91699 9.35349 3.9262 6.90363 5.75878C4.51439 7.54607 3.12158 9.91378 2.9318 12.4796C2.56172 12.4057 2.2559 12.304 1.91481 12.1903C1.15282 11.9364 0.329022 12.3482 0.0749885 13.1102C-0.178938 13.8722 0.232907 14.696 0.9949 14.95C1.51799 15.1243 2.08882 15.3136 2.90857 15.4213L4.36404 15.5094C5.58231 15.5094 6.12533 15.3284 6.81284 15.0993C7.59955 14.8371 8.49133 14.5398 10.1819 14.5398H10.182H10.1821C11.8725 14.5398 12.7642 14.837 13.5508 15.0993C14.2384 15.3284 14.7814 15.5094 16.0001 15.5094C17.2183 15.5094 17.7613 15.3284 18.4487 15.0993C19.2355 14.8371 20.1273 14.5398 21.818 14.5398H21.8181H21.8182C23.5088 14.5398 24.4005 14.837 25.1872 15.0993C25.8748 15.3284 26.4178 15.5094 27.6362 15.5094L29.0913 15.4214C29.9111 15.3137 30.4821 15.1244 31.005 14.95C31.7671 14.6959 32.1791 13.8722 31.9248 13.1101Z" fill="#F58220"/>
<path d="M29.6211 18.4184H27.637C25.9465 18.4184 25.0549 18.1212 24.2681 17.8589C23.5805 17.6298 23.0375 17.4487 21.8189 17.4487H21.8188H21.8187C20.6001 17.4487 20.057 17.6298 19.3694 17.8589C18.5828 18.1212 17.6911 18.4184 16.0009 18.4184C14.3101 18.4184 13.4184 18.1212 12.6317 17.8589C11.9441 17.6298 11.4011 17.4487 10.1827 17.4487C8.96423 17.4487 8.4211 17.6298 7.73349 17.8589C6.94677 18.1212 6.0551 18.4184 4.36478 18.4184H2.38025C1.59801 18.4425 0.970703 19.0827 0.970703 19.8707C0.970703 20.6739 1.62198 21.3252 2.42521 21.3252H2.91005H29.0913H29.5761C30.3793 21.3252 31.0306 20.6739 31.0306 19.8707C31.0306 19.0826 30.4033 18.4424 29.6211 18.4184Z" fill="#14CC80"/>
</svg>
